<svg width="48" height="48" viewBox="0 0 48 48" fill="none" xmlns="http://www.w3.org/2000/svg">
<path d="M29.3332 5.3335H39.9998C41.0607 5.3335 42.0781 5.75492 42.8283 6.50507C43.5784 7.25521 43.9998 8.27263 43.9998 9.3335V25.3335C43.9998 25.6871 43.8594 26.0263 43.6093 26.2763C43.3593 26.5264 43.0201 26.6668 42.6665 26.6668H29.3332C28.9796 26.6668 28.6404 26.5264 28.3904 26.2763C28.1403 26.0263 27.9998 25.6871 27.9998 25.3335V6.66683C27.9998 6.31321 28.1403 5.97407 28.3904 5.72402C28.6404 5.47397 28.9796 5.3335 29.3332 5.3335Z" fill="black" fill-opacity="0.1"/>
<path d="M29.3333 30.6668H42.6667C43.0203 30.6668 43.3594 30.8073 43.6095 31.0574C43.8595 31.3074 44 31.6465 44 32.0002V38.6668C44 39.7277 43.5786 40.7451 42.8284 41.4953C42.0783 42.2454 41.0609 42.6668 40 42.6668H29.3333C29.1582 42.6668 28.9849 42.6323 28.8231 42.5653C28.6613 42.4983 28.5143 42.4001 28.3905 42.2763C28.2667 42.1525 28.1685 42.0055 28.1015 41.8437C28.0345 41.682 28 41.5086 28 41.3335V32.0002C28 31.8251 28.0345 31.6517 28.1015 31.4899C28.1685 31.3281 28.2667 31.1812 28.3905 31.0574C28.5143 30.9335 28.6613 30.8353 28.8231 30.7683C28.9849 30.7013 29.1582 30.6668 29.3333 30.6668ZM8 5.3335H22.6667C23.0203 5.3335 23.3594 5.47397 23.6095 5.72402C23.8595 5.97407 24 6.31321 24 6.66683V41.3335C24 41.6871 23.8595 42.0263 23.6095 42.2763C23.3594 42.5264 23.0203 42.6668 22.6667 42.6668H8C6.93913 42.6668 5.92172 42.2454 5.17157 41.4953C4.42143 40.7451 4 39.7277 4 38.6668V9.33349C4 8.27263 4.42143 7.25521 5.17157 6.50507C5.92172 5.75492 6.93913 5.3335 8 5.3335Z" fill="black" fill-opacity="0.2"/>
</svg>
