<svg width="16" height="16" viewBox="0 0 16 16" fill="none" xmlns="http://www.w3.org/2000/svg">
<g clip-path="url(#clip0_580_461)">
<path d="M5.3 7.3H2C0.9 7.3 0 6.4 0 5.3V2C0 0.9 0.9 0 2 0H5.3C6.4 0 7.3 0.9 7.3 2V5.3C7.3 6.4 6.4 7.3 5.3 7.3ZM10.7 7.3H14C15.1 7.3 16 6.4 16 5.3V2C16 0.9 15.1 0 14 0H10.7C9.6 0 8.7 0.9 8.7 2V5.3C8.7 6.4 9.6 7.3 10.7 7.3ZM5.3 8.7H2C0.9 8.7 0 9.6 0 10.7V14C0 15.1 0.9 16 2 16H5.3C6.4 16 7.3 15.1 7.3 14V10.7C7.3 9.6 6.4 8.7 5.3 8.7Z" fill="#787F8D"/>
<path d="M8.59998 12.3001C8.59998 12.786 8.69568 13.2671 8.88162 13.716C9.06756 14.1649 9.3401 14.5728 9.68368 14.9164C10.0273 15.26 10.4351 15.5325 10.884 15.7185C11.333 15.9044 11.8141 16.0001 12.3 16.0001C12.7859 16.0001 13.267 15.9044 13.7159 15.7185C14.1648 15.5325 14.5727 15.26 14.9163 14.9164C15.2598 14.5728 15.5324 14.1649 15.7183 13.716C15.9043 13.2671 16 12.786 16 12.3001C16 11.3188 15.6102 10.3777 14.9163 9.6838C14.2224 8.98992 13.2813 8.6001 12.3 8.6001C11.3187 8.6001 10.3776 8.98992 9.68368 9.6838C8.9898 10.3777 8.59998 11.3188 8.59998 12.3001Z" fill="#787F8D"/>
</g>
<defs>
<clipPath id="clip0_580_461">
<rect width="16" height="16" fill="white"/>
</clipPath>
</defs>
</svg>
