<svg width="48" height="48" viewBox="0 0 48 48" fill="none" xmlns="http://www.w3.org/2000/svg">
<g clip-path="url(#clip0_478_657)">
<path d="M20.9551 20.64L9.99308 6.25497C9.42608 5.51997 9.53108 4.46997 10.2451 3.83997C10.9381 3.23097 11.9881 3.31497 12.5761 4.00797L24.0001 17.133L35.4241 4.00797C36.0331 3.31497 37.0621 3.25197 37.7551 3.83997C38.4691 4.44897 38.5741 5.49897 38.0071 6.25497L27.0451 20.64L33.8491 28.473C37.6501 27.087 41.8921 28.641 43.9081 32.148C45.9241 35.655 45.1051 40.107 41.9761 42.669C38.8471 45.231 34.3321 45.189 31.2871 42.543C28.2211 39.897 27.5071 35.445 29.6071 31.98C29.5441 31.917 29.4811 31.833 29.4391 31.77L24.0001 24.651L20.9551 20.64ZM18.7291 23.202L21.9211 27.381L18.5821 31.77C18.5191 31.833 18.4771 31.917 18.4141 31.98C20.4931 35.445 19.8001 39.897 16.7341 42.543C13.6681 45.189 9.15308 45.231 6.04508 42.669C2.91608 40.107 2.11808 35.655 4.11308 32.148C6.12908 28.641 10.3711 27.087 14.1721 28.473L18.7291 23.202ZM11.8201 41.22C13.6261 41.073 15.2011 39.96 15.9361 38.322C16.6711 36.684 16.4821 34.773 15.4111 33.303C14.3401 31.854 12.5761 31.098 10.7911 31.308C8.10308 31.644 6.17108 34.08 6.46508 36.768C6.73808 39.477 9.11108 41.451 11.8201 41.22ZM36.1801 41.22C37.9651 41.451 39.7291 40.674 40.8001 39.225C41.8711 37.776 42.0601 35.865 41.3251 34.227C40.5901 32.589 39.0151 31.476 37.2091 31.329C34.5001 31.098 32.1061 33.072 31.8331 35.76C31.5601 38.448 33.4921 40.884 36.1801 41.22Z" fill="black" fill-opacity="0.2"/>
</g>
<defs>
<clipPath id="clip0_478_657">
<rect width="42" height="42" fill="white" transform="translate(3 3)"/>
</clipPath>
</defs>
</svg>
