<svg width="32" height="32" viewBox="0 0 32 32" fill="none" xmlns="http://www.w3.org/2000/svg">
<path d="M27.6666 11.3335C27.6666 15.1995 24.5326 18.3335 20.6666 18.3335C19.942 18.3335 19.2432 18.2234 18.5858 18.019C17.852 17.7909 17.023 17.8938 16.4796 18.4372L8.48735 26.4294C7.80394 27.1128 6.6959 27.1128 6.01248 26.4294L5.57069 25.9876C4.88727 25.3042 4.88727 24.1961 5.57069 23.5127L13.5629 15.5205C14.1063 14.9771 14.2092 14.1481 13.9811 13.4143C13.7767 12.7569 13.6666 12.0581 13.6666 11.3335C13.6666 7.4675 16.8006 4.3335 20.6666 4.3335C21.0176 4.3335 21.3626 4.35933 21.6997 4.4092C22.8642 4.58146 23.0969 5.98655 22.2645 6.81892L20.7374 8.34606C20.0539 9.02948 20.0539 10.1375 20.7374 10.8209L21.1791 11.2627C21.8626 11.9461 22.9706 11.9461 23.654 11.2627L25.1811 9.73563C26.0135 8.90324 27.4186 9.13595 27.5909 10.3004C27.6408 10.6376 27.6666 10.9825 27.6666 11.3335Z" fill="#50596B"/>
</svg>
